<svg id="big-max" width="100%" height="100%" viewBox="0 0 96 25" xmlns="http://www.w3.org/2000/svg" xml:space="preserve" fill="var(--primary-color)" fill-rule="evenodd" clip-rule="evenodd" stroke-linejoin="round" stroke-miterlimit="2"><path d="M.74 15.01H8.9l1.05-2.52H1.82zM-.02 25h3.55l.17-.44-.24-1.18.37-.9H1.82l-.37.87-1.29 1.2zm.75-2.5H2.8l1.04-2.52H1.82zm0-2.5H2.8l1.04-2.52H1.82zm3.58 2.5h1.01l1.28-2.52H5.2zM6.1 25h3.51l.17-.44-.24-1.12.4-.97h-2l-.34.83-1.31 1.26zM.74 17.5H2.8l1.04-2.52H1.82zm3.4 2.5h1.4l1.24-2.52H5.1zm2.71 2.5h2.06l1.05-2.52H7.93zm-2.84-5h1.7l1.2-2.52H4.93zM6.85 20h2.06l1.05-2.52H7.93zm0-2.5h2.06l1.05-2.52H7.93zM.74 12.53h3.61L4.99 10H1.82zm0-2.5h3.2l.68-2.53h-2.8zm4.62 2.5h3.55L9.96 10H6.82zm-4.62-5h2.83L4.25 5H1.82zm5 2.5H8.9L9.95 7.5H7.19zm-5-5H3.2l.64-2.52H1.82zm0-2.5H2.8l.37-.87L4.45.45 4.62 0H1.11L.94.44l.2 1.15zm5.37 5h2.8L9.96 5h-2.4zm.37-2.5H8.9L9.96 2.5H7.93zm.37-2.5h2.06l.37-.9L10.53.44 10.7 0H7.2l-.17.44.24 1.2zm4.6 17.49h6.14l.71-2.53h-5.57zM10.36 25h3.52l.17-.44-.27-1.18.37-.9h-2.03l-.34.87-1.25 1.2zm.75-2.5h2.02l1.35-2.52h-2.02zm3.98 2.5h3.52l.17-.44-.28-1.18.38-.9h-2.03l-.34.87-1.25 1.2zm.75-2.5h2.02l.75-2.52h-2.03zm-4.12-5h2.02l1.22-2.28.07-.24h-2zm.3-2.49h2l1-2.52h-1.68zm3.24 2.5h2.03l.74-2.53h-2l-.06.24zm-.23-2.5h1.99l.7-2.52h-1.68zm-2.7-2.5H14L15.03 10h-1.39zm2.7 0h1.69l.7-2.52h-1.38zm-2.4-2.5H14l.37-.9h1.02l-.37.9h1.38l.74-2.52H13.9zm.27-2.49h3.24L16.85 5h-2.64zm.3-2.5h2.64l.7-2.52h-2.02zm.27-2.5h2.03l.37-.87 1.25-1.2.2-.45h-3.51l-.2.44.27 1.2z" fill-rule="nonzero"/><path d="M19.35 2.53h2.06l.37-.88 1.25-1.2.2-.45H19.7l-.2.44.23 1.2zM18.54 25h3.55l.2-.44-.24-1.2.37-.89h-2.06l-.37.89-1.25 1.2zm.74-2.5h2.06l1.63-2.52H20.9zm4.8 2.5h3.55l.2-.44-.24-1.2.38-.89H25.9l-.37.89-1.25 1.2zm-4.26-5h2.06l1.6-2.52h-2zm5 2.5h2.06l.54-2.52h-2.06zm-4.42-5h2l.5-.75.74-1.77h-1.62zm3.88 2.5h2.06l.51-2.52h-2.03zm-3.34-4.99h1.62l1.08-2.52H22.6zm2.8 2.5h2.03l.54-2.53h-1.62l-.75 1.76zm-.13-2.5h1.62l.5-2.52H24.7zm-2.1-2.5h3.14l.27-1.17.95-1.35h-3.41l-.2 1.35zm-.13-2.5h1.18l1.08-2.52h-1.82zm-.65-2.49h1.83l.2-.44.34-2.09h-1.96zm2.88 2.5h1.18l1.72-2.53H24.7zm-3.55-5h1.96l.47-2.52h-2.06zm3.55 2.5h1.82L27.2 5h-2l-1.38 2.09zm.5-2.5h2l1.75-2.52h-2.02zm.64-2.5h2.03l.37-.87L28.4.45l.2-.45h-3.5l-.2.44.23 1.2zM34.22 25h2.06c.4 0 .8 0 1.38-.35l.58-.36c.54-.35.64-.73.8-1.08l.34-.74h-6.15l-.33.74c-.17.35-.27.7 0 1.08l.23.36c.24.35.68.35 1.08.35m-2.07-2.5h2.07l1.04-2.52h-2.02zm0-2.5h2.07l1.04-2.52h-2.02zm4.13 2.5h2.02l1.08-2.52h-2.06zm-4.13-5h2.07l1.04-2.49H32.5l-.17.44.2 1.2zm4.2 2.33-.07.18h2.02l.27-.53c.38-.7.51-1.38.68-2h-2.13a25 25 0 0 1-.78 2.35m-.31-2.32h2.16c.27-.94.37-1.8.44-2.53h-2.23c-.03.74-.1 1.59-.37 2.53m-.68-2.5h2.2c.07-.9-.03-1.76-.1-2.52h-2.23c.03.82.13 1.61.13 2.52m-1.18-2.5h2.2c-.04-.82-.17-1.64-.17-2.52h-2.16q-.04 1.33.13 2.52m-1.21-2.5h2.2c.02-.76.06-1.6.3-2.52h-2.1a12 12 0 0 0-.4 2.53m-.65-2.49h2.1q.1-.55.3-1.12.25-.72.54-1.4h-2.02l-.17.38c-.37.76-.58 1.5-.75 2.14m3.96 2.5h2.77l.17-.44-.2-1.2.36-.89H37.3zm-4.13-5h2.07l1.04-2.52h-2.02zm4.13 2.5h2.02L39.38 5h-2.06zm0-2.5h2.02l1.08-2.52H37.3zM32.49 1.8l-.34.74h6.15l.34-.74c.17-.35.24-.7 0-1.06L38.4.38C38.13 0 37.73 0 37.32 0h-2.06c-.4 0-.8.03-1.38.38l-.58.35c-.54.36-.67.74-.8 1.06m8.41 10.73h6.12l1.08-2.53H42zM40.2 25h3.5l.18-.44-.24-1.18.37-.9H42l-.38.87-1.25 1.2zm.7-2.5h2.07L44 19.98h-2zm3.38 2.5h3.48l.17-.44-.24-1.15.41-.94h-2.06l-.37.91-1.22 1.18zm-3.38-5h2.06l1.05-2.52h-2.03zm4.1 2.5h2.02l1.08-2.52h-2.06zm-4.1-5h2.06l1.05-2.52h-2.03zM45 20h2.02l1.08-2.52h-2.06zm-4.1-4.99h2.06l1.05-2.52h-2.03zm4.1 2.5h2.02l1.08-2.53h-2.06zm0-2.5h2.02l1.08-2.52h-2.06zm-4.1-5h2.06l1.05-2.52h-2.03zm0-2.49h2.06L44.01 5h-2.03zm4.1 2.5h2.02l1.08-2.53h-2.06zm-4.1-5h2.06l1.05-2.52h-2.03zm4.1 2.5h2.02L48.1 5h-2.06zm-4.1-5h2.06l.38-.93L44.55.44l.17-.44h-3.48l-.17.44.24 1.15zm4.1 2.5h2.02L48.1 2.5h-2.06zm0-2.5h2.02l.37-.87 1.25-1.2.17-.45H45.3l-.17.44.23 1.2zM49.21 25h5.64l1.04-2.53h-4.86l-.34.83-1.32 1.26zm.74-2.5h2.03l1.04-2.52h-2zm4.05 0h1.9l.33-.79h-.5zM49.96 20h2.03l1.04-2.52h-2zm0-2.5h2.03l1.04-2.52h-2zm0-2.49h2.03l1.04-2.52h-2zm0-2.5h4.09L55.09 10h-4.05zm0-2.5h2.03l1.04-2.52h-2zm0-2.49h2.03L53.03 5h-2zm0-2.5h2.03l1.04-2.52h-2zM54 3.32h.5l.35-.82h-1.9zm-4.05-.8h4.9L55.9 0h-5.6l-.17.44.23 1.15zm7.02 10h4.13c.4 0 .8.02 1.38-.36l.58-.38c.54-.35.64-.7.8-1.06l.34-.73h-6.14zM56.25 25h3.51l.2-.44-.23-1.2.37-.89h-2.02l-.37.89-1.26 1.2zm.74-2.5h2.07l1.04-2.52h-2.02zM60.5 25h3.55l.2-.44-.24-1.2.37-.89h-2.06l-.37.89-1.25 1.2zm-3.51-5h2.06l1.04-2.52h-2.02zm4.25 2.5h2.06l.5-2.52h-2.02zm-4.26-5h2.07l1.04-2.52h-2.02zm3.76 2.5h1.99l.54-2.52h-2.03zm-3.76-4.99h2.07l1.04-2.52h-2.02zm3.22 2.5h1.99l.5-2.53h-1.55l-.78 1.88zm-.14-2.5h1.55l.71-2.85-1.18.36zm-3.08-5h2.07l1.04-2.52h-2.02zm0-2.49h2.07L60.09 5h-2.02zm4.16 2.5h2.03l1.01-2.53h-2.06zm-4.16-5h2.07l1.04-2.52h-2.02zm4.13 2.5h2.02L64.21 5h-2.06zm0-2.5h2.02l1.08-2.52h-2.06zm-4.12-2.5h6.08l.3-.73c.17-.35.3-.7.07-1.06l-.27-.35C62.9 0 62.53 0 62.12 0h-4.8l-.2.44.24 1.2zm8 22.48h3.55l.17-.44-.2-1.26.33-.83h-2.02l-.34.83-1.32 1.26zm.75-2.5h2.06l1.04-2.52h-2.02zm0-2.5h2.06l1.04-2.52h-2.02zm0-2.5h2.06l1.04-2.52h-2.02zm0-2.49h2.06l1.04-2.52h-2.02zm.03-2.5h2.06L68.84 10h-2.02zm-.03-2.5h2.06l1.04-2.52h-2.02zm0-2.49h2.06L68.84 5h-2.02zm0-2.5h2.06l1.04-2.52h-2.02zm0-2.5h2.06l.37-.9L69.42.44l.17-.44h-3.52l-.17.44.2 1.24zM69.99 25h4.8c.4 0 .81 0 1.38-.35l.58-.36c.54-.35.64-.7.8-1.08l.35-.74h-6.08l-.4.97-1.26 1.12zm.75-2.5h2.02l1.05-2.52h-2zm0-2.5h2.02l1.05-2.52h-2zm4.05 2.5h2.03l1.08-2.52h-2.06zm-4.06-5h2.03l1.05-2.52h-2zM74.8 20h2.03l1.08-2.52h-2.06zm-4.06-4.99h2.03l1.05-2.52h-2zm4.06 2.5h2.03l1.08-2.53h-2.06zm-4.06-5h2.03L73.81 10h-2zm4.06 2.5h2.03l1.08-2.52h-2.06zm-4.06-5h2.03l1.05-2.52h-2zm4.06 2.5h2.03L77.9 10h-2.06zm-4.06-4.99h2.03L73.81 5h-2zm4.06 2.5h2.03l1.08-2.53h-2.06zm-4.06-5h2.03l1.05-2.52h-2zm4.06 2.5h2.03L77.9 5h-2.06zm0-2.5h2.03L77.9 2.5h-2.06zm-4.06-2.5h6.09l.33-.73c.17-.35.24-.7 0-1.06l-.23-.35C76.65 0 76.24 0 75.84 0h-4.77l-.17.44.24 1.15zm8.32 17.49h6.15l.7-2.53h-5.57zM77.97 25h3.5l.18-.44-.27-1.18.37-.9h-2.03l-.34.87-1.25 1.2zm.74-2.5h2.03l1.35-2.52h-2.03zm3.98 2.5h3.52l.17-.44-.27-1.18.37-.9h-2.03l-.34.87-1.25 1.2zm.75-2.5h2.02l.75-2.52h-2.03zm-4.12-5h2.02l1.22-2.28.07-.24h-2zm.3-2.49h2l1-2.52h-1.68zm3.24 2.5h2.03l.74-2.53h-1.99l-.07.24zm-.23-2.5h1.99l.71-2.52h-1.69zm-2.7-2.5h1.68L82.63 10h-1.39zm2.7 0h1.69l.7-2.52h-1.38zm-2.4-2.5h1.38l.37-.9H83l-.37.9H84l.74-2.52H81.5zm.27-2.49h3.24L84.45 5h-2.63zm.3-2.5h2.64l.7-2.52h-2.02zm.27-2.5h2.03l.37-.87 1.25-1.2.2-.45h-3.5l-.21.44.27 1.2zm6.56 12.5h6.15l1.08-2.53H88.7zM86.88 25h3.52l.2-.44-.24-1.2.38-.89H88.7l-.37.89-1.25 1.2zm.75-2.5h2.06l1.04-2.52h-2.02zm3.34 2.5h3.51l.2-.44-.23-1.2.37-.89H92.8l-.38.89-1.25 1.2zm-3.34-5h2.06l1.04-2.52h-2.02zm4.12 2.5h2.03l1.08-2.52h-2.4zm-4.12-5h2.06l1.04-2.52h-2.02zM91.4 20h2.37l1.08-2.52h-2.77zm-.37-2.5h2.74l1.08-2.52h-3.08zm-3.41-4.98h3.1l.78-2.53h-2.8zm0-2.5h2.84l.8-2.53H88.7zm4.12 2.5h2.03l1.08-2.53H92.8zm-4.12-5h2.6l.8-2.53H88.7zm4.12 2.5h2.03l1.08-2.53H92.8zm-4.12-5h2.33l.78-2.52H88.7zm4.12 2.5h2.03L94.86 5H92.8zm-4.12-5h2.02l.38-.87 1.25-1.2.2-.45h-3.52l-.2.44.24 1.2zm4.12 2.5h2.03l1.08-2.52H92.8zm0-2.5h2.03l.37-.87L95.4.45l.2-.45h-3.51l-.2.44.23 1.2z" fill-rule="nonzero"/></svg>