<svg id="big-max" width="100%" height="100%" viewBox="0 0 100 28" xmlns="http://www.w3.org/2000/svg" xml:space="preserve" fill="var(--primary-color)" fill-rule="evenodd" clip-rule="evenodd" stroke-linejoin="round" stroke-miterlimit="2"><path d="M.78 16.42h8.55l1.1-2.77H1.9zM0 27.34h3.71l.18-.48-.25-1.29.39-1H1.9l-.39.97-1.34 1.32zm.78-2.73h2.15l1.1-2.77H1.9zm0-2.73h2.15l1.1-2.77H1.9zm3.74 2.73h1.06l1.35-2.77H5.44zm1.88 2.73h3.67l.18-.48-.25-1.23.42-1.06H8.3l-.35.9-1.38 1.39zm-5.62-8.2h2.15l1.1-2.76H1.9zm3.57 2.74H5.8l1.3-2.77H5.34zm2.82 2.73h2.16l1.1-2.77H8.3zm-2.96-5.46h1.76l1.27-2.77H5.16zm2.96 2.73h2.16l1.1-2.77H8.3zm0-2.73h2.16l1.1-2.77H8.3zm-6.4-5.47h3.79l.67-2.76H1.91zm0-2.73h3.36l.71-2.76H1.91zm4.85 2.73h3.7l1.1-2.76H7.14zM.78 8.22h2.97l.7-2.76H1.91zM6 10.95h3.32l1.1-2.76h-2.9zM.78 5.5h2.58l.67-2.76H1.9zm0-2.73h2.15l.4-.96L4.65.48 4.84 0H1.17L.99.48l.21 1.26zM6.4 8.22h2.93l1.1-2.76H7.91zm.38-2.73h2.55l1.1-2.76H8.3zm.4-2.73h2.15l.39-1 1.3-1.28.18-.48H7.53l-.18.48.25 1.32zm4.8 19.12h6.43l.74-2.77h-5.83zm-1.13 5.46h3.67l.18-.48-.28-1.29.39-1h-2.12l-.36.97-1.3 1.32zm.78-2.73h2.12l1.4-2.77h-2.11zm4.17 2.73h3.67l.18-.48-.29-1.29.4-1h-2.13l-.35.97-1.3 1.32zm.77-2.73h2.12l.78-2.77h-2.12zm-4.3-5.46h2.11l1.27-2.51.07-.26h-2.08zm.31-2.73h2.08l1.06-2.77h-1.76zm3.4 2.73h2.11l.78-2.77h-2.09l-.07.26zm-.26-2.73h2.09l.74-2.77h-1.77zm-2.82-2.74h1.76l1.06-2.76h-1.44zm2.82 0h1.77l.74-2.76h-1.45zm-2.5-2.73h1.44l.4-1h1.05l-.39 1h1.45l.78-2.76h-3.4zm.28-2.73h3.4l.73-2.76h-2.75zm.32-2.73h2.75l.75-2.76H15.2zm.28-2.73h2.12l.39-.96L17.9.48l.22-.48h-3.68l-.2.48.27 1.32z" fill-rule="nonzero"/><path d="M20.25 2.76h2.15l.4-.96L24.1.48l.21-.48h-3.7l-.22.48.25 1.32zm-.85 24.58h3.71l.21-.48-.25-1.32.4-.97H21.3l-.4.97-1.3 1.32zm.78-2.73h2.15l1.7-2.77h-2.16zm5.01 2.73h3.72l.2-.48-.24-1.32.39-.97H27.1l-.39.97-1.3 1.32zm-4.45-5.46h2.16l1.66-2.77h-2.09zm5.23 2.73h2.16l.56-2.77h-2.15zm-4.63-5.46h2.09l.53-.84.78-1.93h-1.7zm4.07 2.73h2.15l.53-2.77h-2.12zm-3.5-5.46h1.7l1.13-2.77h-1.1zm2.93 2.73h2.12l.57-2.77h-1.7l-.78 1.93zm-.14-2.73h1.7l.53-2.77h-1.1zm-2.2-2.74h3.3l.28-1.28.99-1.48H23.5l-.21 1.48zm-.13-2.73h1.23l1.14-2.76h-1.91zm-.67-2.73h1.9l.22-.48.35-2.28h-2.05zm3 2.73h1.24l1.8-2.76h-1.9zM20.99 5.5h2.05l.5-2.76h-2.16zm3.71 2.73h1.9l1.85-2.76h-2.09l-1.45 2.28zm.53-2.73h2.08l1.84-2.76h-2.12zm.67-2.73h2.12l.39-.96 1.3-1.32.22-.48h-3.68l-.2.48.24 1.32zm9.9 24.58h2.15c.43 0 .85 0 1.45-.39l.6-.38c.57-.39.67-.8.85-1.2l.35-.8h-6.43l-.35.8c-.18.4-.29.78 0 1.2l.24.38c.25.39.71.39 1.14.39m-2.16-2.73h2.16l1.09-2.77h-2.12zm0-2.73h2.16l1.09-2.77h-2.12zm4.31 2.73h2.12l1.13-2.77h-2.15zm-4.31-5.46h2.16l1.09-2.73h-2.9l-.17.48.2 1.31zm4.38 2.53-.07.2h2.12l.28-.58c.4-.77.53-1.51.71-2.19h-2.23q-.29 1.16-.8 2.57m-.32-2.53h2.26c.29-1.03.4-1.96.46-2.77H38.1c-.03.8-.1 1.74-.39 2.77m-.7-2.73h2.3c.06-1-.04-1.93-.11-2.77h-2.33c.03.9.14 1.77.14 2.77m-1.24-2.74h2.3c-.04-.9-.18-1.8-.18-2.76h-2.26a34.4 24.5 0 0 0 .14 2.76m-1.27-2.73h2.3c.03-.83.07-1.76.31-2.76h-2.19c-.28 1-.35 1.93-.42 2.76m-.67-2.73H36q.1-.6.32-1.22c.17-.51.35-1.06.56-1.54h-2.12l-.18.42a12 12 0 0 0-.77 2.34m4.13 2.73h2.9l.18-.48-.22-1.31.4-.97h-2.16zm-4.3-5.46h2.16l1.09-2.76h-2.12zm4.31 2.73h2.12l1.13-2.76h-2.15zm0-2.73h2.12l1.13-2.76h-2.15zM34 1.96l-.35.8h6.43l.35-.8c.18-.39.25-.77 0-1.16l-.24-.38C39.89 0 39.48 0 39.05 0h-2.16c-.42 0-.85.03-1.45.42l-.6.38c-.56.39-.7.8-.85 1.16m8.8 11.72h6.4l1.13-2.76h-6.4zm-.74 13.66h3.67l.18-.48-.25-1.29.4-1h-2.13l-.39.97-1.3 1.32zm.74-2.73h2.16l1.1-2.77h-2.13zm3.54 2.73h3.64l.17-.48-.25-1.26.43-1.03h-2.16l-.39 1-1.27 1.29zm-3.54-5.46h2.16l1.1-2.77h-2.13zm4.28 2.73h2.12l1.13-2.77h-2.16zm-4.28-5.46h2.16l1.1-2.77h-2.13zm4.28 2.73h2.12l1.13-2.77h-2.16zm-4.28-5.46h2.16l1.1-2.77h-2.13zm4.28 2.73h2.12l1.13-2.77h-2.16zm0-2.73h2.12l1.13-2.77h-2.16zm-4.28-5.47h2.16l1.1-2.76h-2.13zm0-2.73h2.16l1.1-2.76h-2.13zm4.28 2.73h2.12l1.13-2.76h-2.16zM42.79 5.5h2.16l1.1-2.76h-2.13zm4.28 2.73h2.12l1.13-2.76h-2.16zm-4.28-5.46h2.16l.39-1.02L46.6.48l.17-.48h-3.63l-.18.48.25 1.26zm4.28 2.73h2.12l1.13-2.76h-2.16zm0-2.73h2.12l.39-.96 1.3-1.32.18-.48H47.4l-.18.48.25 1.32zm4.41 24.58h5.9l1.1-2.77H53.4l-.35.9-1.38 1.39zm.78-2.73h2.12l1.1-2.77h-2.09zm4.24 0h1.98l.35-.87h-.53zm-4.24-2.73h2.12l1.1-2.77h-2.09zm0-2.73h2.12l1.1-2.77h-2.09zm0-2.73h2.12l1.1-2.77h-2.09zm0-2.74h4.28l1.1-2.76h-4.25zm0-2.73h2.12l1.1-2.76h-2.09zm0-2.73h2.12l1.1-2.76h-2.09zm0-2.73h2.12l1.1-2.76h-2.09zm4.24-1.86h.53l.35-.9h-1.97zm-4.24-.87h5.12L58.48 0h-5.86l-.18.48.25 1.26zm7.35 10.92h4.31c.43 0 .85.04 1.45-.38l.6-.42c.57-.38.67-.77.85-1.15l.35-.8h-6.43zm-.78 13.66h3.68l.21-.48-.25-1.32.4-.97h-2.13l-.39.97-1.3 1.32zm.78-2.73h2.16l1.1-2.77h-2.13zm3.68 2.73h3.7l.22-.48-.25-1.32.39-.97H65.2l-.4.97-1.3 1.32zm-3.68-5.46h2.16l1.1-2.77h-2.13zm4.45 2.73h2.16l.53-2.77h-2.12zm-4.45-5.46h2.16l1.1-2.77h-2.13zm3.92 2.73h2.09l.56-2.77h-2.12zm-3.92-5.46h2.16l1.1-2.77h-2.13zm3.36 2.73h2.08l.53-2.77h-1.62l-.82 2.06zm-.14-2.73h1.62l.75-3.12-1.24.38zm-3.22-5.47h2.16l1.1-2.76h-2.13zm0-2.73h2.16l1.1-2.76h-2.13zm4.35 2.73h2.12l1.06-2.76h-2.16zM59.6 5.5h2.16l1.1-2.76h-2.13zm4.31 2.73h2.12l1.13-2.76h-2.15zm0-2.73h2.12l1.13-2.76h-2.15zm-4.3-2.73h6.35l.32-.8c.18-.39.32-.77.07-1.16l-.28-.38C65.8 0 65.4 0 64.98 0h-5.01l-.22.48L60 1.8zm8.37 24.58h3.7l.18-.48-.2-1.39.34-.9h-2.1l-.35.9-1.38 1.39zm.77-2.73h2.16l1.1-2.77h-2.13zm0-2.73h2.16l1.1-2.77h-2.13zm0-2.73h2.16l1.1-2.77h-2.13zm0-2.73h2.16l1.1-2.77h-2.13zm.04-2.74h2.15L72 10.93h-2.1zm-.04-2.73h2.16l1.1-2.76h-2.13zm0-2.73h2.16l1.1-2.76h-2.13zm0-2.73h2.16l1.1-2.76h-2.13zm0-2.73h2.16l.39-1L72.6.49l.2-.49h-3.67l-.18.48.21 1.35zm4.46 24.58h5.01c.43 0 .85 0 1.45-.39l.6-.38c.57-.39.67-.77.85-1.2l.35-.8h-6.36l-.42 1.06-1.3 1.23zm.77-2.73h2.12l1.1-2.77h-2.09zm0-2.73h2.12l1.1-2.77h-2.09zm4.24 2.73h2.12l1.13-2.77h-2.15zM74 19.15h2.12l1.1-2.77h-2.09zm4.24 2.73h2.12l1.13-2.77h-2.15zM74 16.42h2.12l1.1-2.77h-2.09zm4.24 2.73h2.12l1.13-2.77h-2.15zM74 13.68h2.12l1.1-2.76h-2.09zm4.24 2.74h2.12l1.13-2.77h-2.15zM74 10.95h2.12l1.1-2.76h-2.09zm4.24 2.73h2.12l1.13-2.76h-2.15zM74 8.22h2.12l1.1-2.76h-2.09zm4.24 2.73h2.12l1.13-2.76h-2.15zM74 5.5h2.12l1.1-2.76h-2.09zm4.24 2.73h2.12l1.13-2.76h-2.15zm0-2.73h2.12l1.13-2.76h-2.15zM74 2.76h6.36l.36-.8c.17-.39.24-.77 0-1.16l-.25-.38C80.18 0 79.76 0 79.33 0h-4.98l-.18.48.25 1.26zm8.7 19.12h6.43l.74-2.77h-5.83zm-1.13 5.46h3.67l.18-.48-.29-1.29.4-1H83.4l-.35.97-1.3 1.32zm.77-2.73h2.12l1.42-2.77h-2.12zm4.17 2.73h3.68l.17-.48-.28-1.29.39-1h-2.12l-.35.97-1.31 1.32zm.78-2.73h2.12l.78-2.77h-2.12zm-4.31-5.46h2.12l1.27-2.51.07-.26h-2.08zm.32-2.73h2.08l1.06-2.77h-1.77zm3.39 2.73h2.12l.78-2.77H87.5l-.07.26zm-.25-2.73h2.09l.74-2.77H87.5zm-2.83-2.74h1.77l1.06-2.76h-1.45zm2.83 0h1.77l.74-2.76H87.5zm-2.5-2.73h1.44l.39-1h1.06l-.39 1h1.45l.78-2.76h-3.4zm.27-2.73h3.4l.74-2.76h-2.76zm.32-2.73h2.76l.74-2.76H85.9zm.29-2.73h2.12l.38-.96 1.3-1.32.21-.48h-3.67l-.21.48.28 1.32zm6.85 13.66h6.43l1.13-2.77H92.8zm-.78 10.92h3.68l.21-.48-.25-1.32.4-.97H92.8l-.39.97-1.3 1.32zm.78-2.73h2.16l1.1-2.77H92.8zm3.5 2.73h3.67l.22-.48-.25-1.32.39-.97h-2.12l-.4.97-1.3 1.32zm-3.5-5.46h2.16l1.1-2.77H92.8zm4.31 2.73h2.12l1.13-2.77h-2.5zm-4.3-5.46h2.15l1.1-2.77H92.8zm3.95 2.73h2.47l1.13-2.77h-2.9zm-.39-2.73h2.86l1.13-2.77h-3.21zm-3.57-5.47h3.25l.81-2.76H92.8zm0-2.73h2.97l.85-2.76H92.8zm4.31 2.73h2.12l1.13-2.76h-2.15zm-4.3-5.46h2.71l.85-2.76H92.8zm4.3 2.73h2.12l1.13-2.76h-2.15zm-4.3-5.46h2.43l.81-2.76H92.8zm4.3 2.73h2.12l1.13-2.76h-2.15zm-4.3-5.46h2.11l.39-.96 1.3-1.32.22-.48H92l-.2.48.24 1.32zm4.3 2.73h2.12l1.13-2.76h-2.15zm0-2.73h2.12l.4-.96L99.8.48 100 0h-3.67l-.22.48.25 1.32z" fill-rule="nonzero"/></svg>