<svg class="inline-graphic moolah" viewBox="0 0 33 48" xmlns="http://www.w3.org/2000/svg" xml:space="preserve" style="fill-rule:evenodd;clip-rule:evenodd;stroke-linecap:round;stroke-linejoin:round;stroke-miterlimit:10"><path d="M20.5 13s-.7-2.3 1.1-6.1c1.7-3.7 5.1-4.7 6.9-3.7 2.1 1.1 1.7 3.2 1.7 3.2s3.5-.8 4.1 2.1c.5 2.8-1.3 3.9-3.5 4-2.3.1-3.5 1.3-3.5 1.3l-6.8-.8Z" style="fill:#f0d5a8;fill-rule:nonzero" transform="translate(-9.783 -2.241) scale(1.09514)"/><path d="M30.2 6.4s.3-2.1-1.7-3.2c-1.8-.9-5.1 0-6.8 3.5 1.2-1.2 2.6-1.9 4-1.5 2.3.7 2.2 2.1 2.2 2.1s2.2-.6 4.3.7c1.2.8 1.8 1.8 2 2.7.2-.6.3-1.3.1-2.2-.6-2.8-4.1-2.1-4.1-2.1Z" style="fill:#f7e5c6;fill-rule:nonzero" transform="translate(-9.783 -2.241) scale(1.09514)"/><path d="M20.5 13s-.7-2.3 1.1-6.1c1.7-3.7 5.1-4.7 6.9-3.7 2.1 1.1 1.7 3.2 1.7 3.2s3.5-.8 4.1 2.1c.5 2.8-1.3 3.9-3.5 4-2.3.1-3.5 1.3-3.5 1.3l-6.8-.8Z" style="fill:#f0d500;fill-rule:nonzero;stroke:#45413c;stroke-width:1px" transform="translate(-9.783 -2.241) scale(1.09514)"/><path d="M29.3 14.6c0 1.7-2.4 3.8-5.3 3.8s-5.3-2.1-5.3-3.8c0-1.7 2.4-2.2 5.3-2.2s5.3.6 5.3 2.2Z" style="fill:#f0d500;fill-rule:nonzero;stroke:#45413c;stroke-width:1px" transform="translate(-9.783 -2.241) scale(1.09514)"/><path d="M37.2 43c.9-.3 1.5-1.1 1.5-2l-.6-13.2c-.3-6.9-6.5-12.3-14.1-12.3S10.2 20.9 9.9 27.7l-.6 13.2c0 .9.6 1.7 1.5 2 8.5 2.9 17.9 2.9 26.4.1Z" style="fill:#f0d5a8;fill-rule:nonzero" transform="translate(-9.783 -2.241) scale(1.09514)"/><path d="m38.2 30.9-.2-3.1c-.3-6.9-6.5-12.3-14.1-12.3-7.5 0-13.8 5.4-14.1 12.3l-.2 3.1c.9-6.4 7.1-11.2 14.2-11.2 7.3 0 13.5 4.8 14.4 11.2Z" style="fill:#f7e5c6;fill-rule:nonzero" transform="translate(-9.783 -2.241) scale(1.09514)"/><path d="M37.2 43c.9-.3 1.5-1.1 1.5-2l-.6-13.2c-.3-6.9-6.5-12.3-14.1-12.3S10.2 20.9 9.9 27.7l-.6 13.2c0 .9.6 1.7 1.5 2 8.5 2.9 17.9 2.9 26.4.1Z" style="fill:#f0d500;fill-rule:nonzero;stroke:#45413c;stroke-width:1px" transform="translate(-9.783 -2.241) scale(1.09514)"/><path d="M20.2 20.6c0-2.9 1.7-5.2 3.8-5.2 2.1 0 3.8 2.3 3.8 5.2" style="fill:none;fill-rule:nonzero;stroke:#45413c;stroke-width:1px" transform="translate(-9.783 -2.241) scale(1.09514)"/><path d="M30.2 6.4c-2.7.4-4.4 2.3-4.4 2.3" style="fill:#ff87af;fill-rule:nonzero;stroke:#45413c;stroke-width:1px" transform="translate(-9.783 -2.241) scale(1.09514)"/><path d="M23.3 36.6v-3.4c-.4-.1-.9-.3-1.5-.5s-1.1-.4-1.5-.7c-.4-.3-.8-.7-1-1.1-.3-.5-.4-1-.4-1.7 0-.8.2-1.6.6-2.3.4-.7.9-1.2 1.6-1.6.7-.4 1.4-.6 2.2-.7v-1.1c0-.1.1-.2.2-.3.1-.1.2-.1.4-.1s.4.1.5.2c.1.1.1.4.1.7v.6c.8 0 1.7.2 2.4.5s1.2.8 1.2 1.5c0 .4-.1.8-.4 1.1-.3.3-.6.4-1 .4-.3 0-.6-.1-1.1-.3-.5-.2-.8-.3-1.1-.3v2.7c.9.3 1.7.6 2.4.8.6.3 1.2.7 1.6 1.3.5.6.7 1.4.7 2.4 0 .7-.1 1.3-.4 1.8-.2.6-.6 1-1 1.5-.4.4-.9.7-1.5 1-.6.3-1.2.4-1.8.4v1.2c0 .1-.1.2-.2.3-.1.1-.2.1-.4.1s-.4-.1-.5-.2c-.1-.2-.1-.4-.1-.7v-.6c-.7 0-1.3-.1-2-.2s-1.3-.4-1.7-.7c-.5-.3-.7-.8-.7-1.3 0-.4.1-.8.4-1 .3-.3.6-.4 1-.4.3 0 .8.1 1.5.4.7.3 1.2.3 1.5.3Zm0-6.7v-2.3c-.3.1-.6.2-.8.5-.2.3-.3.5-.3.8 0 .3.1.5.3.6.2.1.5.2.8.4Zm1.2 3.7v3c.4-.1.7-.3 1-.6.2-.3.4-.7.4-1.1-.1-.6-.5-1-1.4-1.3Z" style="fill:#45413c;fill-rule:nonzero" transform="translate(-9.783 -2.241) scale(1.09514)"/></svg>