<svg width="100%" height="100%" viewBox="0 0 800 219" version="1.1" xmlns="http://www.w3.org/2000/svg" xmlns:xlink="http://www.w3.org/1999/xlink" xml:space="preserve" xmlns:serif="http://www.serif.com/" style="fill-rule:evenodd;clip-rule:evenodd;stroke-linejoin:round;stroke-miterlimit:2;">
    <g transform="matrix(7.78377,0,0,5.5451,-36.5229,-302.208)">
        <path d="M5.491,78.182L14.28,78.182L15.406,74.197L6.653,74.197L5.491,78.182ZM4.692,93.939L8.506,93.939L8.687,93.244L8.433,91.39L8.832,89.954L6.653,89.954L6.254,91.344L4.874,93.244L4.692,93.939ZM5.491,90L7.707,90L8.832,86.014L6.653,86.014L5.491,90ZM5.491,86.061L7.707,86.061L8.832,82.075L6.653,82.075L5.491,86.061ZM9.341,90L10.43,90L11.81,86.014L10.285,86.014L9.341,90ZM11.266,93.939L15.043,93.939L15.224,93.244L14.97,91.483L15.406,89.954L13.227,89.954L12.864,91.251L11.447,93.244L11.266,93.939ZM5.491,82.122L7.707,82.122L8.832,78.136L6.653,78.136L5.491,82.122ZM9.159,86.061L10.648,86.061L11.992,82.075L10.176,82.075L9.159,86.061ZM12.065,90L14.28,90L15.406,86.014L13.227,86.014L12.065,90ZM9.014,82.122L10.83,82.122L12.137,78.136L9.995,78.136L9.014,82.122ZM12.065,86.061L14.28,86.061L15.406,82.075L13.227,82.075L12.065,86.061ZM12.065,82.122L14.28,82.122L15.406,78.136L13.227,78.136L12.065,82.122ZM5.491,74.243L9.377,74.243L10.067,70.257L6.653,70.257L5.491,74.243ZM5.491,70.304L8.941,70.304L9.668,66.318L6.653,66.318L5.491,70.304ZM10.467,74.243L14.28,74.243L15.406,70.257L12.028,70.257L10.467,74.243ZM5.491,66.364L8.542,66.364L9.268,62.379L6.653,62.379L5.491,66.364ZM10.866,70.304L14.28,70.304L15.406,66.318L12.428,66.318L10.866,70.304ZM5.491,62.425L8.142,62.425L8.832,58.439L6.653,58.439L5.491,62.425ZM5.491,58.486L7.707,58.486L8.106,57.095L9.486,55.195L9.668,54.5L5.891,54.5L5.709,55.195L5.927,57.003L5.491,58.486ZM11.266,66.364L14.28,66.364L15.406,62.379L12.827,62.379L11.266,66.364ZM11.665,62.425L14.28,62.425L15.406,58.439L13.227,58.439L11.665,62.425ZM12.065,58.486L14.28,58.486L14.679,57.049L16.023,55.195L16.205,54.5L12.428,54.5L12.246,55.195L12.5,57.095L12.065,58.486Z" style="fill-rule:nonzero;"/>
        <path d="M17.004,86.061L23.614,86.061L24.376,82.075L18.384,82.075L17.004,86.061ZM15.842,93.939L19.619,93.939L19.8,93.244L19.51,91.39L19.909,89.954L17.73,89.954L17.367,91.344L16.023,93.244L15.842,93.939ZM16.641,90L18.82,90L20.272,86.014L18.093,86.014L16.641,90ZM20.926,93.939L24.703,93.939L24.885,93.244L24.594,91.39L24.994,89.954L22.815,89.954L22.451,91.344L21.108,93.244L20.926,93.939ZM21.725,90L23.904,90L24.703,86.014L22.524,86.014L21.725,90ZM17.294,82.122L19.473,82.122L20.781,78.507L20.853,78.136L18.711,78.136L17.294,82.122ZM17.621,78.182L19.764,78.182L20.853,74.197L19.038,74.197L17.621,78.182ZM21.108,82.122L23.287,82.122L24.086,78.136L21.943,78.136L21.87,78.507L21.108,82.122ZM20.853,78.182L22.996,78.182L23.759,74.197L21.943,74.197L20.853,78.182ZM17.948,74.243L19.764,74.243L20.853,70.257L19.364,70.257L17.948,74.243ZM20.853,74.243L22.669,74.243L23.432,70.257L21.943,70.257L20.853,74.243ZM18.275,70.304L19.764,70.304L20.163,68.867L21.253,68.867L20.853,70.304L22.342,70.304L23.141,66.318L19.655,66.318L18.275,70.304ZM18.565,66.364L22.052,66.364L22.815,62.379L19.982,62.379L18.565,66.364ZM18.892,62.425L21.725,62.425L22.488,58.439L20.309,58.439L18.892,62.425ZM19.183,58.486L21.362,58.486L21.761,57.095L23.105,55.195L23.323,54.5L19.546,54.5L19.328,55.195L19.619,57.095L19.183,58.486Z" style="fill-rule:nonzero;"/>
        <path d="M25.502,58.486L27.717,58.486L28.117,57.095L29.461,55.195L29.678,54.5L25.865,54.5L25.647,55.195L25.901,57.095L25.502,58.486ZM24.63,93.939L28.444,93.939L28.662,93.244L28.407,91.344L28.807,89.954L26.592,89.954L26.192,91.344L24.848,93.244L24.63,93.939ZM25.429,90L27.645,90L29.388,86.014L27.173,86.014L25.429,90ZM30.586,93.939L34.4,93.939L34.618,93.244L34.363,91.344L34.763,89.954L32.548,89.954L32.148,91.344L30.804,93.244L30.586,93.939ZM26.01,86.061L28.226,86.061L29.933,82.075L27.79,82.075L26.01,86.061ZM31.385,90L33.601,90L34.182,86.014L31.966,86.014L31.385,90ZM26.628,82.122L28.771,82.122L29.315,80.917L30.114,78.136L28.371,78.136L26.628,82.122ZM30.804,86.061L33.02,86.061L33.564,82.075L31.385,82.075L30.804,86.061ZM27.209,78.182L28.952,78.182L30.114,74.197L28.988,74.197L27.209,78.182ZM30.223,82.122L32.402,82.122L32.983,78.136L31.24,78.136L30.441,80.917L30.223,82.122ZM30.078,78.182L31.821,78.182L32.366,74.197L31.24,74.197L30.078,78.182ZM27.826,74.243L31.204,74.243L31.494,72.389L32.511,70.257L28.843,70.257L28.625,72.389L27.826,74.243ZM27.681,70.304L28.952,70.304L30.114,66.318L28.153,66.318L27.681,70.304ZM26.991,66.364L28.952,66.364L29.17,65.669L29.533,62.379L27.427,62.379L26.991,66.364ZM30.078,70.304L31.349,70.304L33.201,66.318L31.24,66.318L30.078,70.304ZM26.265,62.425L28.371,62.425L28.88,58.439L26.664,58.439L26.265,62.425ZM30.078,66.364L32.039,66.364L33.928,62.379L31.785,62.379L30.296,65.669L30.078,66.364ZM30.623,62.425L32.765,62.425L34.654,58.439L32.475,58.439L30.623,62.425ZM31.313,58.486L33.492,58.486L33.891,57.095L35.235,55.195L35.453,54.5L31.676,54.5L31.458,55.195L31.712,57.095L31.313,58.486Z" style="fill-rule:nonzero;"/>
        <path d="M41.482,93.939L43.697,93.939C44.133,93.939 44.569,93.939 45.186,93.383L45.803,92.827C46.384,92.271 46.493,91.669 46.675,91.112L47.038,89.954L40.428,89.954L40.065,91.112C39.884,91.669 39.775,92.225 40.065,92.827L40.319,93.383C40.574,93.939 41.046,93.939 41.482,93.939ZM39.266,90L41.482,90L42.607,86.014L40.428,86.014L39.266,90ZM39.266,86.061L41.482,86.061L42.607,82.075L40.428,82.075L39.266,86.061ZM43.697,90L45.876,90L47.038,86.014L44.823,86.014L43.697,90ZM39.266,82.122L41.482,82.122L42.607,78.182L39.629,78.182L39.448,78.877L39.666,80.778L39.266,82.122ZM43.77,85.783L43.697,86.061L45.876,86.061L46.167,85.227C46.566,84.114 46.711,83.048 46.893,82.075L44.605,82.075C44.387,83.187 44.133,84.439 43.77,85.783ZM43.443,82.122L45.767,82.122C46.058,80.638 46.167,79.294 46.239,78.136L43.842,78.136C43.806,79.294 43.733,80.638 43.443,82.122ZM42.716,78.182L45.077,78.182C45.15,76.746 45.041,75.402 44.968,74.197L42.571,74.197C42.607,75.494 42.716,76.746 42.716,78.182ZM41.445,74.243L43.806,74.243C43.77,72.945 43.624,71.648 43.624,70.257L41.3,70.257C41.264,71.648 41.336,72.992 41.445,74.243ZM40.138,70.304L42.498,70.304C42.535,69.099 42.571,67.755 42.825,66.318L40.574,66.318C40.283,67.755 40.211,69.099 40.138,70.304ZM39.448,66.364L41.7,66.364C41.772,65.762 41.881,65.206 42.026,64.603C42.208,63.862 42.39,63.074 42.607,62.379L40.428,62.379L40.247,62.981C39.847,64.186 39.629,65.345 39.448,66.364ZM43.697,70.304L46.675,70.304L46.857,69.608L46.639,67.708L47.038,66.318L44.823,66.318L43.697,70.304ZM39.266,62.425L41.482,62.425L42.607,58.439L40.428,58.439L39.266,62.425ZM43.697,66.364L45.876,66.364L47.038,62.379L44.823,62.379L43.697,66.364ZM43.697,62.425L45.876,62.425L47.038,58.439L44.823,58.439L43.697,62.425ZM39.629,57.327L39.266,58.486L45.876,58.486L46.239,57.327C46.421,56.771 46.493,56.215 46.239,55.659L45.985,55.102C45.694,54.5 45.259,54.5 44.823,54.5L42.607,54.5C42.172,54.5 41.736,54.546 41.118,55.102L40.501,55.659C39.92,56.215 39.775,56.817 39.629,57.327Z" style="fill-rule:nonzero;"/>
        <path d="M48.672,74.243L55.246,74.243L56.408,70.257L49.835,70.257L48.672,74.243ZM47.91,93.939L51.687,93.939L51.868,93.244L51.614,91.39L52.014,89.954L49.835,89.954L49.435,91.344L48.091,93.244L47.91,93.939ZM48.672,90L50.888,90L52.014,86.014L49.835,86.014L48.672,90ZM52.304,93.939L56.045,93.939L56.226,93.244L55.972,91.437L56.408,89.954L54.193,89.954L53.793,91.39L52.486,93.244L52.304,93.939ZM48.672,86.061L50.888,86.061L52.014,82.075L49.835,82.075L48.672,86.061ZM53.067,90L55.246,90L56.408,86.014L54.193,86.014L53.067,90ZM48.672,82.122L50.888,82.122L52.014,78.136L49.835,78.136L48.672,82.122ZM53.067,86.061L55.246,86.061L56.408,82.075L54.193,82.075L53.067,86.061ZM48.672,78.182L50.888,78.182L52.014,74.197L49.835,74.197L48.672,78.182ZM53.067,82.122L55.246,82.122L56.408,78.136L54.193,78.136L53.067,82.122ZM53.067,78.182L55.246,78.182L56.408,74.197L54.193,74.197L53.067,78.182ZM48.672,70.304L50.888,70.304L52.014,66.318L49.835,66.318L48.672,70.304ZM48.672,66.364L50.888,66.364L52.014,62.379L49.835,62.379L48.672,66.364ZM53.067,70.304L55.246,70.304L56.408,66.318L54.193,66.318L53.067,70.304ZM48.672,62.425L50.888,62.425L52.014,58.439L49.835,58.439L48.672,62.425ZM53.067,66.364L55.246,66.364L56.408,62.379L54.193,62.379L53.067,66.364ZM48.672,58.486L50.888,58.486L51.287,57.003L52.595,55.195L52.776,54.5L49.036,54.5L48.854,55.195L49.108,57.003L48.672,58.486ZM53.067,62.425L55.246,62.425L56.408,58.439L54.193,58.439L53.067,62.425ZM53.067,58.486L55.246,58.486L55.645,57.095L56.989,55.195L57.171,54.5L53.394,54.5L53.212,55.195L53.466,57.095L53.067,58.486Z" style="fill-rule:nonzero;"/>
        <path d="M57.606,93.939L63.671,93.939L64.797,89.954L59.568,89.954L59.204,91.251L57.788,93.244L57.606,93.939ZM58.405,90L60.585,90L61.71,86.014L59.568,86.014L58.405,90ZM62.764,90L64.797,90L65.16,88.749L64.616,88.749L62.764,90ZM58.405,86.061L60.585,86.061L61.71,82.075L59.568,82.075L58.405,86.061ZM58.405,82.122L60.585,82.122L61.71,78.136L59.568,78.136L58.405,82.122ZM58.405,78.182L60.585,78.182L61.71,74.197L59.568,74.197L58.405,78.182ZM58.405,74.243L62.8,74.243L63.926,70.257L59.568,70.257L58.405,74.243ZM58.405,70.304L60.585,70.304L61.71,66.318L59.568,66.318L58.405,70.304ZM58.405,66.364L60.585,66.364L61.71,62.379L59.568,62.379L58.405,66.364ZM58.405,62.425L60.585,62.425L61.71,58.439L59.568,58.439L58.405,62.425ZM62.764,59.737L63.308,59.737L63.671,58.439L61.638,58.439L62.764,59.737ZM58.405,58.486L63.671,58.486L64.797,54.5L58.769,54.5L58.587,55.195L58.841,57.003L58.405,58.486Z" style="fill-rule:nonzero;"/>
        <path d="M65.959,74.243L70.39,74.243C70.826,74.243 71.262,74.289 71.879,73.687L72.497,73.084C73.078,72.528 73.187,71.972 73.368,71.416L73.731,70.257L67.122,70.257L65.959,74.243ZM65.16,93.939L68.937,93.939L69.155,93.244L68.901,91.344L69.301,89.954L67.122,89.954L66.722,91.344L65.378,93.244L65.16,93.939ZM65.959,90L68.175,90L69.301,86.014L67.122,86.014L65.959,90ZM69.736,93.939L73.55,93.939L73.768,93.244L73.513,91.344L73.913,89.954L71.698,89.954L71.298,91.344L69.954,93.244L69.736,93.939ZM65.959,86.061L68.175,86.061L69.301,82.075L67.122,82.075L65.959,86.061ZM70.535,90L72.751,90L73.296,86.014L71.117,86.014L70.535,90ZM65.959,82.122L68.175,82.122L69.301,78.136L67.122,78.136L65.959,82.122ZM69.991,86.061L72.133,86.061L72.714,82.075L70.535,82.075L69.991,86.061ZM65.959,78.182L68.175,78.182L69.301,74.197L67.122,74.197L65.959,78.182ZM69.41,82.122L71.552,82.122L72.097,78.136L70.427,78.136L69.591,81.102L69.41,82.122ZM69.264,78.182L70.935,78.182L71.698,73.687L70.427,74.243L69.264,78.182ZM65.959,70.304L68.175,70.304L69.301,66.318L67.122,66.318L65.959,70.304ZM65.959,66.364L68.175,66.364L69.301,62.379L67.122,62.379L65.959,66.364ZM70.427,70.304L72.606,70.304L73.695,66.318L71.48,66.318L70.427,70.304ZM65.959,62.425L68.175,62.425L69.301,58.439L67.122,58.439L65.959,62.425ZM70.39,66.364L72.569,66.364L73.731,62.379L71.516,62.379L70.39,66.364ZM70.39,62.425L72.569,62.425L73.731,58.439L71.516,58.439L70.39,62.425ZM65.959,58.486L72.497,58.486L72.823,57.327C73.005,56.771 73.15,56.215 72.896,55.659L72.606,55.102C72.315,54.5 71.916,54.5 71.48,54.5L66.323,54.5L66.105,55.195L66.359,57.095L65.959,58.486Z" style="fill-rule:nonzero;"/>
        <path d="M74.567,93.939L78.38,93.939L78.562,93.244L78.344,91.251L78.707,89.954L76.528,89.954L76.165,91.251L74.748,93.244L74.567,93.939ZM75.366,90L77.581,90L78.707,86.014L76.528,86.014L75.366,90ZM75.366,86.061L77.581,86.061L78.707,82.075L76.528,82.075L75.366,86.061ZM75.366,82.122L77.581,82.122L78.707,78.136L76.528,78.136L75.366,82.122ZM75.366,78.182L77.581,78.182L78.707,74.197L76.528,74.197L75.366,78.182ZM75.402,74.243L77.617,74.243L78.707,70.257L76.528,70.257L75.402,74.243ZM75.366,70.304L77.581,70.304L78.707,66.318L76.528,66.318L75.366,70.304ZM75.366,66.364L77.581,66.364L78.707,62.379L76.528,62.379L75.366,66.364ZM75.366,62.425L77.581,62.425L78.707,58.439L76.528,58.439L75.366,62.425ZM75.366,58.486L77.581,58.486L77.981,57.049L79.324,55.195L79.506,54.5L75.729,54.5L75.547,55.195L75.765,57.142L75.366,58.486Z" style="fill-rule:nonzero;"/>
        <path d="M79.942,93.939L85.099,93.939C85.535,93.939 85.97,93.939 86.588,93.383L87.205,92.827C87.786,92.271 87.895,91.715 88.077,91.112L88.44,89.954L81.903,89.954L81.467,91.483L80.123,93.244L79.942,93.939ZM80.741,90L82.92,90L84.045,86.014L81.903,86.014L80.741,90ZM80.741,86.061L82.92,86.061L84.045,82.075L81.903,82.075L80.741,86.061ZM85.099,90L87.278,90L88.44,86.014L86.225,86.014L85.099,90ZM80.741,82.122L82.92,82.122L84.045,78.136L81.903,78.136L80.741,82.122ZM85.099,86.061L87.278,86.061L88.44,82.075L86.225,82.075L85.099,86.061ZM80.741,78.182L82.92,78.182L84.045,74.197L81.903,74.197L80.741,78.182ZM85.099,82.122L87.278,82.122L88.44,78.136L86.225,78.136L85.099,82.122ZM80.741,74.243L82.92,74.243L84.045,70.257L81.903,70.257L80.741,74.243ZM85.099,78.182L87.278,78.182L88.44,74.197L86.225,74.197L85.099,78.182ZM80.741,70.304L82.92,70.304L84.045,66.318L81.903,66.318L80.741,70.304ZM85.099,74.243L87.278,74.243L88.44,70.257L86.225,70.257L85.099,74.243ZM80.741,66.364L82.92,66.364L84.045,62.379L81.903,62.379L80.741,66.364ZM85.099,70.304L87.278,70.304L88.44,66.318L86.225,66.318L85.099,70.304ZM80.741,62.425L82.92,62.425L84.045,58.439L81.903,58.439L80.741,62.425ZM85.099,66.364L87.278,66.364L88.44,62.379L86.225,62.379L85.099,66.364ZM85.099,62.425L87.278,62.425L88.44,58.439L86.225,58.439L85.099,62.425ZM80.741,58.486L87.278,58.486L87.641,57.327C87.822,56.771 87.895,56.215 87.641,55.659L87.387,55.102C87.096,54.5 86.66,54.5 86.225,54.5L81.104,54.5L80.922,55.195L81.176,57.003L80.741,58.486Z" style="fill-rule:nonzero;"/>
        <path d="M89.675,86.061L96.284,86.061L97.047,82.075L91.055,82.075L89.675,86.061ZM88.513,93.939L92.29,93.939L92.471,93.244L92.181,91.39L92.58,89.954L90.401,89.954L90.038,91.344L88.694,93.244L88.513,93.939ZM89.312,90L91.491,90L92.943,86.014L90.764,86.014L89.312,90ZM93.597,93.939L97.374,93.939L97.556,93.244L97.265,91.39L97.664,89.954L95.485,89.954L95.122,91.344L93.779,93.244L93.597,93.939ZM94.396,90L96.575,90L97.374,86.014L95.195,86.014L94.396,90ZM89.965,82.122L92.144,82.122L93.452,78.507L93.524,78.136L91.382,78.136L89.965,82.122ZM90.292,78.182L92.435,78.182L93.524,74.197L91.708,74.197L90.292,78.182ZM93.779,82.122L95.958,82.122L96.757,78.136L94.614,78.136L94.541,78.507L93.779,82.122ZM93.524,78.182L95.667,78.182L96.43,74.197L94.614,74.197L93.524,78.182ZM90.619,74.243L92.435,74.243L93.524,70.257L92.035,70.257L90.619,74.243ZM93.524,74.243L95.34,74.243L96.103,70.257L94.614,70.257L93.524,74.243ZM90.946,70.304L92.435,70.304L92.834,68.867L93.924,68.867L93.524,70.304L95.013,70.304L95.812,66.318L92.326,66.318L90.946,70.304ZM91.236,66.364L94.723,66.364L95.485,62.379L92.653,62.379L91.236,66.364ZM91.563,62.425L94.396,62.425L95.159,58.439L92.98,58.439L91.563,62.425ZM91.854,58.486L94.033,58.486L94.432,57.095L95.776,55.195L95.994,54.5L92.217,54.5L91.999,55.195L92.29,57.095L91.854,58.486Z" style="fill-rule:nonzero;"/>
        <path d="M98.899,78.182L105.509,78.182L106.671,74.197L100.061,74.197L98.899,78.182ZM98.1,93.939L101.877,93.939L102.095,93.244L101.841,91.344L102.24,89.954L100.061,89.954L99.662,91.344L98.318,93.244L98.1,93.939ZM98.899,90L101.115,90L102.24,86.014L100.061,86.014L98.899,90ZM102.495,93.939L106.272,93.939L106.49,93.244L106.235,91.344L106.635,89.954L104.456,89.954L104.056,91.344L102.713,93.244L102.495,93.939ZM98.899,86.061L101.115,86.061L102.24,82.075L100.061,82.075L98.899,86.061ZM103.33,90L105.509,90L106.671,86.014L104.093,86.014L103.33,90ZM98.899,82.122L101.115,82.122L102.24,78.136L100.061,78.136L98.899,82.122ZM102.967,86.061L105.509,86.061L106.671,82.075L103.693,82.075L102.967,86.061ZM102.567,82.122L105.509,82.122L106.671,78.136L103.366,78.136L102.567,82.122ZM98.899,74.243L102.24,74.243L103.076,70.257L100.061,70.257L98.899,74.243ZM98.899,70.304L101.95,70.304L102.822,66.318L100.061,66.318L98.899,70.304ZM103.33,74.243L105.509,74.243L106.671,70.257L104.456,70.257L103.33,74.243ZM98.899,66.364L101.696,66.364L102.567,62.379L100.061,62.379L98.899,66.364ZM103.33,70.304L105.509,70.304L106.671,66.318L104.456,66.318L103.33,70.304ZM98.899,62.425L101.405,62.425L102.24,58.439L100.061,58.439L98.899,62.425ZM103.33,66.364L105.509,66.364L106.671,62.379L104.456,62.379L103.33,66.364ZM98.899,58.486L101.078,58.486L101.478,57.095L102.822,55.195L103.039,54.5L99.262,54.5L99.045,55.195L99.299,57.095L98.899,58.486ZM103.33,62.425L105.509,62.425L106.671,58.439L104.456,58.439L103.33,62.425ZM103.33,58.486L105.509,58.486L105.909,57.095L107.252,55.195L107.47,54.5L103.693,54.5L103.475,55.195L103.729,57.095L103.33,58.486Z" style="fill-rule:nonzero;"/>
    </g>
</svg>
